<?xml version="1.0" encoding="utf-8"?>
<!-- Generator: Adobe Illustrator 15.0.2, SVG Export Plug-In  -->
<!DOCTYPE svg PUBLIC "-//W3C//DTD SVG 1.1//EN" "http://www.w3.org/Graphics/SVG/1.1/DTD/svg11.dtd" [
	<!ENTITY ns_flows "http://ns.adobe.com/Flows/1.0/">
]>
<svg version="1.1"
	 xmlns="http://www.w3.org/2000/svg" xmlns:xlink="http://www.w3.org/1999/xlink" xmlns:a="http://ns.adobe.com/AdobeSVGViewerExtensions/3.0/"
	 x="0px" y="0px" width="494px" height="231px" viewBox="1 0 494 231" overflow="visible" enable-background="new 1 0 494 231"
	 xml:space="preserve">
<defs>
</defs>
<rect x="1" fill="#5E9985" width="494" height="231"/>
<path fill="#91C8A3" d="M456,31h-43V0h-12v31H74V0H62v62.3c3.7-0.7,7.7-1.2,12-1.3V43h327v44.3c3.3-0.5,6.9-0.8,10.9-0.8
	c0.4,0,0.7,0,1.1,0V43h43V31z M401,178v22H74v-21.6c-3.7-0.1-7.8-0.4-12-0.9V200H30v12h32v19h12v-19h327v19h12v-52.5
	c-0.4,0-0.8,0-1.2,0C408.2,178.5,404.6,178.3,401,178z M35.2,100.3c0-3,0.2-5.7,0.4-8.3H0v12h35.3C35.3,102.8,35.2,101.6,35.2,100.3
	z M447.9,156c-1.1,4.3-3.1,8.5-6.2,12H495v-12H447.9z"/>
<g>
	<g>
		<path fill="#FFFFFF" d="M85.6,105.4c-12.9-2.5-13.2-2.8-13.2-8c0-4.5,1.4-5.5,8.9-5.5c8.8,0,18.9,1.5,26.5,3.2l3.2-24.3
			c-6.3-2.2-18.6-3.8-31.4-3.8c-27.9,0-38.3,7.7-38.3,33.4c0,24.3,6,28.6,30.8,32.5c13.1,2,13.9,2.8,13.9,8.3
			c0,5.4-2.3,6.6-10.3,6.6c-10.2,0-19.7-1.5-29.9-4.5L40.6,167c10.9,3.7,26.2,5.5,37.1,5.5c28.2,0,39.3-10,39.3-33.7
			C117,116,112.2,110.5,85.6,105.4z M174.8,119.5l1.4-24h-16.7V72.3l-30,4.3v18.9h-8v24h8v31.9c0,13.9,7.7,21.1,24.9,21.1
			c6.9,0,15.9-1.2,20.6-2.5l-1.3-22.5c-2.6,0.3-7.5,0.8-10.1,0.8c-2.3,0-4.1-1.1-4.1-3.4v-25.4H174.8z M222.6,92.6
			c-11.9,0-24.5,2-32.2,5.2l4.5,22.2c7.4-2.5,14.4-3.2,20.6-3.2c8.6,0,9,1.8,9,7.1v4.7h-17.7c-15.7,0-23.1,5.2-23.1,21.2
			c0,14.5,5.7,23.2,21.3,23.2c8.8,0,18.6-2.2,24.8-5.9l1.4,5.5h23.4V122C254.5,102.1,248.6,92.6,222.6,92.6z M224.5,151.1
			c-2,0.8-4.8,1.2-7.9,1.2c-3.7,0-4.3-1-4.3-4.5c0-3.7,1.5-4.3,5.5-4.3h6.6V151.1z M303.7,120c-6.2-0.9-6.8-1.2-6.8-3.5
			c0-2.5,1.1-2.9,6-2.9c6.5,0,14,1.5,18.5,2.8l2.8-20.5c-6.3-1.8-15.9-3.2-26-3.2c-23.3,0-30.2,8.3-30.2,25.7
			c0,17.4,2.8,22.6,23.6,25.7c8.5,1.2,8.9,1.4,8.9,4.3c0,2.6-1.5,3.2-6,3.2c-7.5,0-16.3-1.4-23.4-3.4l-3.7,20.2
			c9.1,2.6,20.2,4.2,30.6,4.2c21.9,0,31.4-9.2,31.4-27.3C329.4,127.4,324.8,123.1,303.7,120z M338.5,172.5h29v-77h-29V172.5z
			 M338.5,89.5h29v-26h-29V89.5z M417.5,120c-6.2-0.9-6.8-1.2-6.8-3.5c0-2.5,1.1-2.9,6-2.9c6.5,0,14,1.5,18.5,2.8l2.8-20.5
			c-6.3-1.8-15.9-3.2-26-3.2c-23.3,0-30.2,8.3-30.2,25.7c0,17.4,2.8,22.6,23.6,25.7c8.5,1.2,8.9,1.4,8.9,4.3c0,2.6-1.5,3.2-6,3.2
			c-7.5,0-16.3-1.4-23.4-3.4l-3.7,20.2c9.1,2.6,20.2,4.2,30.6,4.2c21.9,0,31.4-9.2,31.4-27.3C443.2,127.4,438.6,123.1,417.5,120z"/>
	</g>
</g>
</svg>
