<?xml version="1.0" encoding="utf-8"?>
<!-- Generator: Adobe Illustrator 15.0.2, SVG Export Plug-In  -->
<!DOCTYPE svg PUBLIC "-//W3C//DTD SVG 1.1//EN" "http://www.w3.org/Graphics/SVG/1.1/DTD/svg11.dtd" [
	<!ENTITY ns_flows "http://ns.adobe.com/Flows/1.0/">
]>
<svg version="1.1"
	 xmlns="http://www.w3.org/2000/svg" xmlns:xlink="http://www.w3.org/1999/xlink" xmlns:a="http://ns.adobe.com/AdobeSVGViewerExtensions/3.0/"
	 x="0px" y="0px" width="230px" height="230px" viewBox="0 1 230 230" overflow="visible" enable-background="new 0 1 230 230"
	 xml:space="preserve">
<defs>
</defs>
<g>
	<rect y="1" fill="#5E9985" width="230" height="230"/>
</g>
<path fill="#91C8A3" d="M70.2,99.3c0-2.2,0.1-4.3,0.2-6.3H0v12h70.4C70.3,103.2,70.2,101.3,70.2,99.3z M115,177.5
	c-0.7,0-1.5,0-2.3,0c-2.9,0-6.2-0.1-9.7-0.4V196H35v12h68v23h12v-23h115v-12H115V177.5z M115,35V0h-12v60.4
	c3.6-0.4,7.5-0.5,11.6-0.5c0.1,0,0.3,0,0.4,0V47h116V35H115z"/>
<g>
	<path fill="#FFFFFF" d="M120.6,104.4c-12.9-2.5-13.2-2.8-13.2-8c0-4.5,1.4-5.5,8.9-5.5c8.8,0,18.9,1.5,26.5,3.2l3.2-24.3
		c-6.3-2.2-18.6-3.8-31.4-3.8c-27.9,0-38.3,7.7-38.3,33.4c0,24.3,6,28.6,30.8,32.5c13.1,2,13.9,2.8,13.9,8.3c0,5.4-2.3,6.6-10.3,6.6
		c-10.2,0-19.7-1.5-29.9-4.5L75.6,166c10.9,3.7,26.2,5.5,37.1,5.5c28.2,0,39.3-10,39.3-33.7C152,115,147.2,109.5,120.6,104.4z"/>
</g>
</svg>
